<svg width="15" height="13" viewBox="0 0 15 13" fill="none" xmlns="http://www.w3.org/2000/svg">
<path d="M7.145 8.89322C8.21298 8.89322 9.07875 8.02745 9.07875 6.95946C9.07875 5.89148 8.21298 5.02571 7.145 5.02571C6.07701 5.02571 5.21124 5.89148 5.21124 6.95946C5.21124 8.02745 6.07701 8.89322 7.145 8.89322Z" stroke="white" stroke-width="1.03133"/>
<path d="M5.7131 12.1163H8.57763C10.5894 12.1163 11.5956 12.1163 12.3182 11.6425C12.6299 11.4382 12.8985 11.1745 13.1084 10.8664C13.5912 10.1574 13.5912 9.16924 13.5912 7.19423C13.5912 5.21858 13.5912 4.23108 13.1084 3.52204C12.8985 3.214 12.6299 2.95029 12.3182 2.74596C11.8541 2.44107 11.2726 2.33214 10.3825 2.29346C9.95769 2.29346 9.59221 1.97761 9.50906 1.5683C9.44551 1.26849 9.2804 0.999803 9.04164 0.807662C8.80287 0.615521 8.50509 0.511706 8.19862 0.513763H6.09212C5.45527 0.513763 4.90673 0.955303 4.78168 1.5683C4.69853 1.97761 4.33305 2.29346 3.90826 2.29346C3.01874 2.33214 2.43732 2.44171 1.97258 2.74596C1.661 2.95033 1.39269 3.21404 1.18296 3.52204C0.699524 4.23108 0.699524 5.21858 0.699524 7.19423C0.699524 9.16924 0.699524 10.1567 1.18232 10.8664C1.39116 11.1733 1.65931 11.4369 1.97258 11.6425C2.69516 12.1163 3.70135 12.1163 5.7131 12.1163Z" stroke="white" stroke-width="1.03133"/>
<path d="M11.6571 5.02571H11.0125" stroke="white" stroke-width="1.03133" stroke-linecap="round"/>
</svg>
