<svg width="18" height="16" viewBox="0 0 18 16" fill="none" xmlns="http://www.w3.org/2000/svg">
<path d="M0.666626 1.99992C0.666626 1.55789 0.842221 1.13397 1.15478 0.821407C1.46734 0.508847 1.89127 0.333252 2.33329 0.333252H15.6666C16.1087 0.333252 16.5326 0.508847 16.8451 0.821407C17.1577 1.13397 17.3333 1.55789 17.3333 1.99992V11.1666C17.3333 11.6086 17.1577 12.0325 16.8451 12.3451C16.5326 12.6577 16.1087 12.8333 15.6666 12.8333H11.845L9.58913 15.0891C9.43285 15.2453 9.22093 15.3331 8.99996 15.3331C8.77899 15.3331 8.56707 15.2453 8.41079 15.0891L6.15496 12.8333H2.33329C1.89127 12.8333 1.46734 12.6577 1.15478 12.3451C0.842221 12.0325 0.666626 11.6086 0.666626 11.1666V1.99992ZM15.6666 1.99992H2.33329V11.1666H6.49996C6.72095 11.1666 6.93288 11.2545 7.08913 11.4108L8.99996 13.3216L10.9108 11.4108C11.067 11.2545 11.279 11.1666 11.5 11.1666H15.6666V1.99992ZM3.99996 4.91658C3.99996 4.69557 4.08776 4.48361 4.24404 4.32733C4.40032 4.17105 4.61228 4.08325 4.83329 4.08325H13.1666C13.3876 4.08325 13.5996 4.17105 13.7559 4.32733C13.9122 4.48361 14 4.69557 14 4.91658C14 5.1376 13.9122 5.34956 13.7559 5.50584C13.5996 5.66212 13.3876 5.74992 13.1666 5.74992H4.83329C4.61228 5.74992 4.40032 5.66212 4.24404 5.50584C4.08776 5.34956 3.99996 5.1376 3.99996 4.91658ZM3.99996 8.24992C3.99996 8.0289 4.08776 7.81694 4.24404 7.66066C4.40032 7.50438 4.61228 7.41658 4.83329 7.41658H9.83329C10.0543 7.41658 10.2663 7.50438 10.4225 7.66066C10.5788 7.81694 10.6666 8.0289 10.6666 8.24992C10.6666 8.47093 10.5788 8.68289 10.4225 8.83917C10.2663 8.99545 10.0543 9.08325 9.83329 9.08325H4.83329C4.61228 9.08325 4.40032 8.99545 4.24404 8.83917C4.08776 8.68289 3.99996 8.47093 3.99996 8.24992Z" fill="white"/>
</svg>
