<svg width="18" height="18" viewBox="0 0 18 18" fill="none" xmlns="http://www.w3.org/2000/svg">
<path d="M8.99996 0.666748C4.40496 0.666748 0.666626 4.40508 0.666626 9.00008V12.4526C0.666626 13.3059 1.41413 14.0001 2.33329 14.0001H3.16663C3.38764 14.0001 3.5996 13.9123 3.75588 13.756C3.91216 13.5997 3.99996 13.3878 3.99996 13.1667V8.88091C3.99996 8.6599 3.91216 8.44794 3.75588 8.29166C3.5996 8.13538 3.38764 8.04758 3.16663 8.04758H2.40996C2.87329 4.82258 5.64829 2.33341 8.99996 2.33341C12.3516 2.33341 15.1266 4.82258 15.59 8.04758H14.8333C14.6123 8.04758 14.4003 8.13538 14.244 8.29166C14.0878 8.44794 14 8.6599 14 8.88091V14.0001C14 14.9192 13.2525 15.6667 12.3333 15.6667H10.6666V14.8334H7.33329V17.3334H12.3333C14.1716 17.3334 15.6666 15.8384 15.6666 14.0001C16.5858 14.0001 17.3333 13.3059 17.3333 12.4526V9.00008C17.3333 4.40508 13.595 0.666748 8.99996 0.666748Z" fill="white"/>
</svg>
