<svg width="16" height="18" viewBox="0 0 16 18" fill="none" xmlns="http://www.w3.org/2000/svg">
<path d="M7.22913 13.1667H9.10413V8.16675H7.22913V13.1667ZM8.16663 6.50008C8.43225 6.50008 8.65506 6.42008 8.83506 6.26008C9.01506 6.10008 9.10475 5.9023 9.10413 5.66675C9.10413 5.43064 9.01413 5.23286 8.83413 5.07341C8.65413 4.91397 8.43163 4.83397 8.16663 4.83341C7.901 4.83341 7.6785 4.91341 7.49913 5.07341C7.31975 5.23341 7.22975 5.43119 7.22913 5.66675C7.22913 5.90286 7.31913 6.10091 7.49913 6.26091C7.67913 6.42091 7.90163 6.50064 8.16663 6.50008ZM8.16663 17.3334C5.99475 16.8473 4.20163 15.7395 2.78725 14.0101C1.37288 12.2806 0.666001 10.3606 0.666626 8.25008V3.16675L8.16663 0.666748L15.6666 3.16675V8.25008C15.6666 10.3612 14.9598 12.2815 13.546 14.0109C12.1323 15.7404 10.3391 16.8479 8.16663 17.3334ZM8.16663 15.5834C9.79163 15.1251 11.1354 14.2084 12.1979 12.8334C13.2604 11.4584 13.7916 9.93064 13.7916 8.25008V4.31258L8.16663 2.43758L2.54163 4.31258V8.25008C2.54163 9.93064 3.07288 11.4584 4.13538 12.8334C5.19788 14.2084 6.54163 15.1251 8.16663 15.5834Z" fill="white"/>
</svg>
