<svg width="15" height="15" viewBox="0 0 15 15" fill="none" xmlns="http://www.w3.org/2000/svg">
<path d="M6.42192 10.8488V3.55352L4.0946 5.88084L2.84143 4.58291L7.31704 0.1073L11.7927 4.58291L10.5395 5.88084L8.21217 3.55352V10.8488H6.42192ZM1.94631 14.4293C1.454 14.4293 1.03239 14.2538 0.681505 13.9029C0.330617 13.552 0.155472 13.1307 0.156068 12.639V9.95364H1.94631V12.639H12.6878V9.95364H14.478V12.639C14.478 13.1313 14.3026 13.5529 13.9517 13.9038C13.6008 14.2547 13.1795 14.4298 12.6878 14.4293H1.94631Z" fill="#3575E2"/>
<path d="M6.42192 10.8488V3.55352L4.0946 5.88084L2.84143 4.58291L7.31704 0.1073L11.7927 4.58291L10.5395 5.88084L8.21217 3.55352V10.8488H6.42192ZM1.94631 14.4293C1.454 14.4293 1.03239 14.2538 0.681505 13.9029C0.330617 13.552 0.155472 13.1307 0.156068 12.639V9.95364H1.94631V12.639H12.6878V9.95364H14.478V12.639C14.478 13.1313 14.3026 13.5529 13.9517 13.9038C13.6008 14.2547 13.1795 14.4298 12.6878 14.4293H1.94631Z" fill="url(#paint0_linear_178_1177)"/>
<defs>
<linearGradient id="paint0_linear_178_1177" x1="1.33091" y1="3.32243" x2="37.3878" y2="7.85338" gradientUnits="userSpaceOnUse">
<stop stop-color="#8F00FF"/>
<stop offset="1" stop-color="white"/>
</linearGradient>
</defs>
</svg>
